# xmcd
#
# Track frame offsets: 
#        215
#        9522
#        20947
#        34125
#        65890
#        80050
#        91295
#        110197
#        133247
#        147725
#
# Disc length: 2093 seconds
#
# Revision: 5
# Processed by: cddbd v1.5.2PL0 Copyright (c) Steve Scherf et al.
# Submitted via: ExactAudioCopy v0.99pb3
#
DISCID=9d082b0a
DTITLE=Various Artist - The Copulation Compilation
DYEAR=1996
DGENRE=Country
TTITLE0=Garry Lee and Showdown - The Rodeo Song
TTITLE1=Red Peters With Anthony "Tex" Marino and The Poisonaires - How's
TTITLE1=You Whole... Family?
TTITLE2=Dirty Polka Band - The Dirty Polka
TTITLE3=Uncle Mennus - Hustler's Lament
TTITLE4=Billy Fingers - Beer Is Good For You
TTITLE5=Rudolph and The Gang - Here Comes Fatty Clause
TTITLE6=Dr. Badbreath - Ethel Pump
TTITLE7=Kip Addotta - Wet Dreams
TTITLE8=Fred "August" Campbell and The Spur Of The Moment Band - The I-9
TTITLE8=5 Song
TTITLE9=Red Peters With Anthony "Tex" Marino and The Poisonaires - Blow 
TTITLE9=Me (You Hardly Even Know Me)
EXTD=Comedy/Country YEAR: 1996
EXTT0=
EXTT1=
EXTT2=
EXTT3=
EXTT4=
EXTT5=
EXTT6=
EXTT7=
EXTT8=
EXTT9=
PLAYORDER=
